<svg width="596" height="523" viewBox="0 0 596 523" fill="none" xmlns="http://www.w3.org/2000/svg">
<circle cx="334.5" cy="261.5" r="261.5" fill="#288B7D" fill-opacity="0.69"/>
<g clip-path="url(#clip0)">
<path d="M69.4558 412.791C69.4558 412.791 -6.3518 377.911 20.2793 353.722C46.9105 329.534 69.4558 412.791 69.4558 412.791Z" fill="#A8C7C5"/>
<path d="M68.1363 420.931C68.1363 420.931 33.2923 306.502 84.6014 311.974C135.91 317.447 68.1363 420.931 68.1363 420.931Z" fill="#9AB4B2"/>
<path d="M42.7312 410.782L44.1937 429.924L44.2169 430.254C44.2155 433.243 44.3666 436.231 44.6695 439.204C46.6543 458.729 55.1852 467.627 65.1554 467.627C75.1256 467.627 83.2851 458.729 85.2698 439.204C85.5728 436.231 85.7239 433.243 85.7225 430.254L85.7341 429.987L85.7399 429.924L87.2081 410.782H42.7312Z" fill="#A8C7C5"/>
<path d="M85.7399 429.924L85.7342 429.987L85.7225 430.254C85.7239 433.243 85.5728 436.231 85.2699 439.204H44.6696C44.3666 436.231 44.2155 433.243 44.2169 430.254L44.1937 429.924H85.7399Z" fill="white"/>
<path d="M563.892 424.498C563.892 424.498 505.2 397.492 525.819 378.765C546.437 360.038 563.892 424.498 563.892 424.498Z" fill="#9FC0BE"/>
<path d="M562.87 430.799C562.87 430.799 535.893 342.206 575.618 346.443C615.342 350.68 562.87 430.799 562.87 430.799Z" fill="#A8C7C5"/>
<path d="M543.201 422.942L544.333 437.762L544.351 438.018C544.35 440.332 544.467 442.645 544.702 444.947C546.238 460.063 552.843 466.952 560.562 466.952C568.281 466.952 574.599 460.063 576.135 444.947C576.37 442.645 576.487 440.332 576.486 438.018L576.495 437.811L576.499 437.762L577.636 422.942H543.201Z" fill="#A8C7C5"/>
<path d="M576.499 437.762L576.495 437.811L576.486 438.018C576.487 440.332 576.37 442.645 576.135 444.947H544.702C544.467 442.645 544.35 440.332 544.351 438.018L544.333 437.762H576.499Z" fill="white"/>
<path d="M197.586 178.187V152.153H193.536V178.187C192.374 178.656 191.412 179.515 190.814 180.616C190.217 181.717 190.021 182.992 190.26 184.221C190.5 185.451 191.159 186.559 192.127 187.355C193.094 188.152 194.308 188.587 195.561 188.587C196.814 188.587 198.028 188.152 198.995 187.355C199.962 186.559 200.622 185.451 200.862 184.221C201.101 182.992 200.905 181.717 200.307 180.616C199.71 179.515 198.748 178.656 197.586 178.187Z" fill="#A8C7C5"/>
<path d="M207.036 440.913H179.361V104.926H168.561V440.913H140.885C137.605 440.913 134.358 441.559 131.328 442.813C128.297 444.068 125.544 445.907 123.225 448.225C120.906 450.543 119.066 453.295 117.811 456.323C116.556 459.352 115.91 462.598 115.91 465.876V465.876H232.011V465.876C232.011 462.598 231.365 459.352 230.11 456.323C228.855 453.295 227.016 450.543 224.696 448.225C222.377 445.907 219.624 444.068 216.594 442.813C213.564 441.559 210.316 440.913 207.036 440.913Z" fill="#A8C7C5"/>
<path d="M115.966 154.852H231.955L224.863 66.2398C224.603 63.1843 223.209 60.3364 220.955 58.2563C218.701 56.1762 215.749 55.0146 212.681 55H135.24C132.172 55.0146 129.221 56.1762 126.966 58.2563C124.712 60.3364 123.318 63.1843 123.059 66.2398L115.966 154.852Z" fill="#265350"/>
<path d="M277.466 310.377C276.375 310.196 275.259 310.233 274.182 310.486C273.105 310.74 272.09 311.205 271.194 311.853C270.299 312.502 269.541 313.323 268.966 314.267C268.39 315.211 268.008 316.26 267.841 317.353L264.576 338.773L275.687 341.718L283.828 321.761C284.301 320.601 284.507 319.35 284.43 318.1C284.354 316.85 283.997 315.633 283.386 314.54C282.775 313.447 281.925 312.505 280.9 311.784C279.876 311.064 278.702 310.583 277.466 310.377Z" fill="#A0616A"/>
<path d="M277.258 338.733C283.424 363.225 280.771 385.626 257.81 403.215C230.27 395.628 211.953 377.32 200.777 350.714C200.083 349.059 199.73 347.282 199.742 345.487C199.754 343.693 200.129 341.92 200.845 340.275C201.561 338.63 202.603 337.147 203.909 335.915C205.214 334.684 206.756 333.729 208.441 333.11C210.972 332.18 213.726 332.042 216.338 332.715C218.95 333.387 221.294 334.839 223.06 336.876L250.082 368.049L262.758 336.616L277.258 338.733Z" fill="#265350"/>
<path d="M418.362 467.23C393.216 465.895 377.595 457.265 373.812 439.569L377.862 432.147L424.231 453.26C425.402 453.794 426.388 454.662 427.063 455.757C427.738 456.851 428.073 458.121 428.024 459.406C427.975 460.691 427.545 461.932 426.788 462.972C426.032 464.012 424.983 464.804 423.775 465.246L418.362 467.23Z" fill="#AFD4D2"/>
<path d="M398.932 467.407C385.867 467.012 373.302 467.135 361.396 467.94C359.308 468.083 357.247 467.397 355.661 466.031C354.076 464.665 353.093 462.729 352.926 460.643L352.212 451.713L342.087 435.52L350.862 426.75C365.609 441.43 381.782 453.761 400.99 461.09C401.607 461.513 402.071 462.124 402.312 462.832C402.553 463.54 402.558 464.307 402.326 465.018C402.094 465.729 401.638 466.347 401.027 466.777C400.415 467.208 399.68 467.429 398.932 467.407Z" fill="#AFD5D2"/>
<path d="M327.911 403.811C311.227 433.649 294.819 453.764 273.236 464.531C246.681 473.291 227.274 461.686 212.147 437.882L256.023 408.871L262.435 415.28L320.552 371.077C321.972 369.733 323.865 369.004 325.819 369.048C327.774 369.091 329.632 369.904 330.99 371.309L380.562 432.147L374.487 442.267L327.911 403.811Z" fill="#2F2E41"/>
<path d="M342.761 438.894L319.811 403.811L325.211 393.691L355.587 425.4L342.761 438.894Z" fill="#2F2E41"/>
<path d="M210.46 326.898C223.135 326.898 233.41 316.628 233.41 303.959C233.41 291.29 223.135 281.02 210.46 281.02C197.785 281.02 187.509 291.29 187.509 303.959C187.509 316.628 197.785 326.898 210.46 326.898Z" fill="#A0616A"/>
<path d="M216.535 346.464L190.885 337.693C194.68 331.664 196.344 324.538 195.61 317.453H216.535C215.345 327.747 215.166 337.51 216.535 346.464Z" fill="#A0616A"/>
<path d="M271.211 407.859C267.365 409.437 267.084 414.554 263.448 416.292C245.871 424.698 227.275 431.518 214.51 443.617C184.679 423.37 157.03 360.485 192.91 332.97C205.157 340.133 216.097 345.259 215.86 332.97L271.211 407.859Z" fill="#265350"/>
<path opacity="0.2" d="M255.685 380.872L243.198 376.487L218.56 395.715L207.515 355.974C206.749 353.218 205.508 354.615 203.726 356.53C201.868 354.811 199.557 353.659 197.066 353.21C194.575 352.761 192.007 353.033 189.666 353.994C187.324 354.956 185.307 356.566 183.851 358.636C182.395 360.706 181.562 363.148 181.449 365.676C180.135 394.502 188.832 418.89 210.46 437.544C238.748 431.491 250.752 412.388 255.685 387.619L254.348 386.728C254.841 384.813 255.287 382.862 255.685 380.872Z" fill="black"/>
<path d="M213.548 273.784C221.118 275.512 229.735 277.962 230.218 280.238C238.005 282.2 243.883 286.898 245.083 294.06C245.183 294.679 245.147 295.313 244.976 295.916C244.804 296.519 244.503 297.078 244.092 297.552C243.682 298.026 243.172 298.405 242.6 298.661C242.027 298.917 241.405 299.045 240.778 299.035C236.543 298.98 230.185 298.575 225.987 296.822C213.792 304.676 211.745 325.103 217.071 339.008L208.69 338.24L200.019 312.871L197.805 337.243L178.68 334.715L181.143 303.637C181.9 296.312 184.394 289.273 188.418 283.105C188.836 282.485 189.294 281.893 189.787 281.332C192.697 278.047 196.442 275.61 200.626 274.281C204.809 272.952 209.275 272.78 213.548 273.784Z" fill="#2F2E41"/>
<path d="M256.696 350.796L277.7 375.477L309.207 338.312L287.918 312.495L256.696 350.796Z" fill="#3F3D56"/>
<path d="M303.814 339.164L278.835 318.737C280.255 315.333 287.067 316.467 287.067 316.467L306.619 336.28C307.3 336.97 307.884 337.749 308.355 338.596L303.814 339.164Z" fill="#F2F2F2"/>
<path d="M304.949 337.745L276.565 315.616L245.058 363.278L274.72 383.279C277.558 384.414 280.396 382.428 280.396 382.428L309.348 338.171L304.949 337.745Z" fill="#3F3D56"/>
<path d="M280.104 322.523L279.836 322.896L298.003 335.945L298.272 335.571L280.104 322.523Z" fill="#265350"/>
<path d="M298.513 340.455L274.67 376.486L275.053 376.739L298.896 340.709L298.513 340.455Z" fill="#265350"/>
<path d="M252.86 363.374L252.588 363.744L271.885 377.935L272.157 377.565L252.86 363.374Z" fill="#265350"/>
<path d="M276.66 323.145L251.965 358.608L252.343 358.87L277.037 323.407L276.66 323.145Z" fill="#265350"/>
<path d="M284.288 316.186L284.096 316.395L306.556 336.998L306.748 336.789L284.288 316.186Z" fill="#B3B3B3"/>
<path d="M282.416 316.363L282.229 316.576L305.703 337.288L305.891 337.076L282.416 316.363Z" fill="#B3B3B3"/>
<path d="M280.948 316.776L280.766 316.994L305.134 337.296L305.316 337.077L280.948 316.776Z" fill="#B3B3B3"/>
<path d="M268.034 358.041C267.126 357.41 266.101 356.965 265.02 356.733C263.938 356.501 262.822 356.486 261.734 356.688C260.647 356.891 259.611 357.308 258.686 357.914C257.761 358.52 256.966 359.304 256.347 360.22L244.21 378.173L252.985 385.595L268.899 371.052C269.824 370.207 270.547 369.165 271.014 368.002C271.481 366.84 271.68 365.588 271.597 364.338C271.514 363.089 271.15 361.874 270.533 360.784C269.916 359.694 269.062 358.757 268.034 358.041Z" fill="#A0616A"/>
<path d="M255.685 383.571C250.752 408.34 238.748 427.443 210.46 433.496C188.832 414.842 180.135 390.454 181.449 361.628C181.531 359.836 181.975 358.079 182.755 356.463C183.535 354.847 184.634 353.405 185.987 352.226C187.339 351.046 188.917 350.153 190.625 349.6C192.332 349.046 194.134 348.845 195.922 349.007C198.608 349.251 201.156 350.306 203.227 352.033C205.298 353.76 206.794 356.076 207.515 358.673L218.56 398.413L243.493 375.446L255.685 383.571Z" fill="#265350"/>
<path d="M595.733 468H0V466.528H596L595.733 468Z" fill="#FFFEF9"/>
<path d="M311.374 116.737C311.016 116.738 310.672 116.88 310.419 117.133C310.166 117.386 310.024 117.729 310.024 118.087V223.336C310.024 223.693 310.166 224.036 310.419 224.289C310.672 224.542 311.016 224.685 311.374 224.685H399.125C399.483 224.685 399.826 224.542 400.079 224.289C400.332 224.036 400.474 223.693 400.475 223.336V118.087C400.474 117.729 400.332 117.386 400.079 117.133C399.826 116.88 399.483 116.738 399.125 116.737H311.374Z" fill="#A8C7C5"/>
<path d="M320.486 214.228H390.012V127.195H320.486V214.228Z" fill="white"/>
<path d="M457.468 144.399C457.254 144.399 457.049 144.484 456.898 144.635C456.747 144.786 456.662 144.991 456.662 145.204V197.567C456.662 197.781 456.747 197.986 456.898 198.137C457.049 198.288 457.254 198.372 457.468 198.373H520.334C520.548 198.372 520.753 198.288 520.904 198.137C521.055 197.985 521.14 197.781 521.14 197.567V145.204C521.14 144.991 521.055 144.786 520.904 144.635C520.753 144.484 520.548 144.399 520.334 144.399L457.468 144.399Z" fill="#A8C7C5"/>
<path d="M462.908 150.642V192.13H514.894V150.642H462.908Z" fill="white"/>
<path d="M367.525 124.159H342.973C342.38 124.161 341.796 124.007 341.282 123.711C340.768 123.416 340.34 122.989 340.044 122.476C339.747 121.962 339.591 121.379 339.593 120.786C339.594 120.193 339.752 119.611 340.05 119.099L352.326 97.8464C352.336 97.829 352.347 97.8115 352.357 97.794C352.625 97.342 352.997 96.9598 353.441 96.6786C353.885 96.3973 354.39 96.2251 354.913 96.1759L354.931 96.1742C355.036 96.1647 355.142 96.1597 355.249 96.1597C355.842 96.1562 356.426 96.3106 356.939 96.607C357.453 96.9034 357.879 97.3312 358.172 97.8464L370.448 119.099C370.744 119.611 370.9 120.193 370.9 120.785C370.9 121.377 370.744 121.959 370.448 122.472C370.152 122.985 369.726 123.411 369.213 123.707C368.7 124.003 368.118 124.159 367.525 124.159ZM342.295 120.782C342.297 120.902 342.329 121.019 342.388 121.123C342.447 121.226 342.532 121.312 342.635 121.371C342.737 121.431 342.854 121.461 342.973 121.46H367.525C367.644 121.461 367.761 121.431 367.864 121.371C367.967 121.312 368.052 121.226 368.11 121.123C368.17 121.019 368.202 120.902 368.203 120.782C368.202 120.665 368.17 120.549 368.11 120.448L355.834 99.1958C355.775 99.0932 355.689 99.008 355.587 98.9488C355.484 98.8896 355.368 98.8584 355.249 98.8584C355.131 98.8584 355.014 98.8896 354.912 98.9488C354.809 99.008 354.724 99.0932 354.664 99.1958L342.388 120.448C342.328 120.549 342.296 120.664 342.295 120.782Z" fill="#A8C7C5"/>
<path d="M355.249 102.569C356.368 102.569 357.274 101.663 357.274 100.545C357.274 99.4273 356.368 98.5211 355.249 98.5211C354.131 98.5211 353.224 99.4273 353.224 100.545C353.224 101.663 354.131 102.569 355.249 102.569Z" fill="#A8C7C5"/>
<path d="M495.557 146.086H482.245C481.924 146.087 481.607 146.003 481.328 145.843C481.049 145.683 480.818 145.452 480.657 145.173C480.496 144.895 480.412 144.579 480.412 144.257C480.413 143.936 480.499 143.62 480.661 143.342L487.316 131.82L487.333 131.791C487.478 131.546 487.68 131.339 487.921 131.187C488.161 131.034 488.435 130.941 488.719 130.914L488.728 130.913C488.785 130.908 488.843 130.905 488.901 130.905C489.223 130.903 489.539 130.987 489.817 131.148C490.096 131.309 490.327 131.541 490.486 131.82L497.141 143.342C497.302 143.62 497.386 143.936 497.386 144.257C497.386 144.578 497.302 144.893 497.141 145.171C496.981 145.449 496.75 145.68 496.472 145.84C496.193 146.001 495.878 146.086 495.557 146.086ZM481.878 144.255C481.878 144.32 481.896 144.383 481.928 144.44C481.96 144.496 482.006 144.542 482.062 144.574C482.117 144.606 482.181 144.623 482.245 144.622H495.557C495.621 144.623 495.684 144.606 495.74 144.574C495.796 144.542 495.842 144.496 495.874 144.44C495.906 144.383 495.923 144.32 495.924 144.255C495.924 144.191 495.906 144.129 495.874 144.074L489.218 132.551C489.186 132.496 489.14 132.45 489.084 132.418C489.028 132.385 488.965 132.369 488.901 132.369C488.837 132.369 488.774 132.385 488.718 132.418C488.662 132.45 488.616 132.496 488.584 132.551L481.928 144.074C481.896 144.129 481.878 144.191 481.878 144.255Z" fill="#A8C7C5"/>
<path d="M488.901 134.38C489.507 134.38 489.999 133.889 489.999 133.283C489.999 132.677 489.507 132.186 488.901 132.186C488.295 132.186 487.803 132.677 487.803 133.283C487.803 133.889 488.295 134.38 488.901 134.38Z" fill="#A8C7C5"/>
<path d="M321.281 181.088C322.252 178.862 323.665 176.857 325.437 175.195C327.208 173.533 329.299 172.249 331.583 171.422C333.959 170.506 336.504 170.113 339.045 170.271C341.586 170.429 344.063 171.134 346.307 172.338C351.574 175.132 355.785 179.525 361.135 182.199C366.337 184.775 372.061 186.123 377.866 186.139C384.438 186.19 390.909 184.511 396.627 181.271C396.849 181.131 397.008 180.91 397.07 180.655C397.132 180.4 397.093 180.131 396.96 179.904C396.828 179.677 396.612 179.511 396.359 179.44C396.106 179.369 395.836 179.399 395.604 179.524C390.422 182.426 384.602 184.002 378.663 184.111C372.723 184.22 366.849 182.859 361.564 180.148C356.197 177.335 351.944 172.794 346.477 170.158C344.156 169.032 341.634 168.378 339.058 168.234C336.482 168.089 333.903 168.457 331.471 169.316C328.767 170.223 326.286 171.693 324.193 173.63C322.1 175.567 320.442 177.925 319.329 180.55C318.837 181.756 320.795 182.281 321.281 181.088V181.088Z" fill="#A8C7C5"/>
<path d="M319.682 200.008C330.919 197.5 342.577 197.541 353.797 200.126C363.764 202.436 374.053 206.593 384.33 203.493C388.921 202.108 393.129 199.338 395.488 195.075C396.119 193.934 394.37 192.912 393.739 194.054C389.298 202.08 378.894 203.434 370.676 202.117C365.186 201.237 359.894 199.473 354.489 198.21C342.871 195.488 330.785 195.435 319.143 198.056C317.872 198.34 318.41 200.292 319.682 200.008Z" fill="#A8C7C5"/>
<path d="M318.952 154.765C329.727 152.934 340.763 153.326 351.381 155.918C361.3 158.347 370.996 163.897 381.484 162.939C386.34 162.495 391.147 160.71 394.446 156.997C395.309 156.026 393.882 154.589 393.014 155.566C390.168 158.769 386.07 160.429 381.864 160.877C377.016 161.394 372.253 160.39 367.639 158.964C362.532 157.385 357.57 155.385 352.377 154.08C341.269 151.292 329.699 150.861 318.413 152.814C317.131 153.032 317.675 154.983 318.952 154.765Z" fill="#A8C7C5"/>
<path d="M471.961 149.959C476.617 154.724 479.828 160.709 481.224 167.221C482.297 172.402 482.176 177.759 480.87 182.887C479.564 188.014 477.107 192.776 473.685 196.813C472.846 197.801 474.272 199.239 475.117 198.245C479.778 192.756 482.755 186.038 483.689 178.9C484.369 173.389 483.797 167.796 482.014 162.537C480.232 157.278 477.285 152.49 473.393 148.527C472.479 147.596 471.048 149.027 471.961 149.959Z" fill="#A8C7C5"/>
<path d="M502.343 145.64C496.137 150.189 492.663 157.532 492.174 165.128C491.665 173.03 494.681 180.663 499.537 186.798C502.37 190.331 505.754 193.385 509.56 195.842C510.653 196.557 511.669 194.805 510.582 194.094C504.382 190.039 499.077 184.28 496.26 177.368C494.887 174.085 494.174 170.563 494.164 167.005C494.154 163.446 494.846 159.921 496.201 156.63C497.718 152.964 500.192 149.771 503.366 147.387C504.406 146.625 503.396 144.868 502.343 145.64Z" fill="#A8C7C5"/>
<path d="M359.974 165.988C365.193 165.988 369.424 161.76 369.424 156.543C369.424 151.326 365.193 147.098 359.974 147.098C354.755 147.098 350.524 151.326 350.524 156.543C350.524 161.76 354.755 165.988 359.974 165.988Z" fill="#A8C7C5"/>
</g>
<defs>
<clipPath id="clip0">
<rect width="596" height="413" fill="white" transform="translate(0 55)"/>
</clipPath>
</defs>
</svg>
