<svg width="1440" height="507" viewBox="0 0 1440 507" fill="none" xmlns="http://www.w3.org/2000/svg">
<path d="M480 319C361 385 296.5 445 0 507V259.029V0H1439.99V126.5C1245 113.5 1119 100.5 882 189.5C645 278.5 628.102 236.859 480 319Z" fill="#95D5B2" fill-opacity="0.15"/>
<path d="M506 185.5C386.999 236.139 296.502 341.43 0 389V198.742V0H1440V88.5C1233.5 59 1142 35.294 905 103.58C667.999 171.866 654.103 122.477 506 185.5Z" fill="#52B788" fill-opacity="0.15"/>
<path d="M477.5 175.5C358.499 236.423 296.502 410.769 0 468V239.104V0H1440V106.473C1233.5 70.982 1222 95 959.5 68C697 41 625.603 99.6779 477.5 175.5Z" fill="#2D6A4F" fill-opacity="0.15"/>
</svg>
