<svg width="258" height="86" viewBox="0 0 258 86" fill="none" xmlns="http://www.w3.org/2000/svg">
<path d="M21.816 49.072H18.216V60.304L25.056 61.816V67H2.592V61.816L7.92 60.304V23.224L2.592 21.856V16.672L18.432 16.312H24.984C28.968 16.312 32.232 17.008 34.776 18.4C37.32 19.744 39.192 21.616 40.392 24.016C41.64 26.368 42.264 29.008 42.264 31.936C42.264 35.2 41.52 38.128 40.032 40.72C38.592 43.264 36.36 45.304 33.336 46.84C30.36 48.328 26.52 49.072 21.816 49.072ZM23.328 23.656H18.216V41.656H21.888C25.056 41.656 27.48 40.792 29.16 39.064C30.888 37.336 31.752 35.032 31.752 32.152C31.752 29.512 31.032 27.448 29.592 25.96C28.2 24.424 26.112 23.656 23.328 23.656ZM45.6818 67V61.816L50.5058 60.448V35.392L45.6818 33.952V28.768L58.3538 28.192L59.3618 33.664C61.3298 31.744 63.2738 30.28 65.1938 29.272C67.1618 28.216 69.2738 27.688 71.5298 27.688C73.0178 27.688 74.6498 27.928 76.4258 28.408L75.7778 41.728H69.9458L69.0818 35.68C68.7458 35.632 68.3858 35.608 68.0018 35.608C66.7058 35.608 65.4098 35.968 64.1138 36.688C62.8178 37.408 61.6418 38.344 60.5858 39.496V60.448L66.5618 61.816V67H45.6818ZM96.0188 67.864C90.7868 67.864 86.5388 66.232 83.2748 62.968C80.0588 59.656 78.4508 54.832 78.4508 48.496C78.4508 44.176 79.2188 40.48 80.7548 37.408C82.3388 34.288 84.5468 31.888 87.3788 30.208C90.2108 28.528 93.5468 27.688 97.3867 27.688C101.131 27.688 104.179 28.432 106.531 29.92C108.883 31.408 110.611 33.448 111.715 36.04C112.819 38.584 113.371 41.464 113.371 44.68C113.371 46.264 113.227 47.944 112.939 49.72H88.9628C89.2508 52.888 90.1148 55.456 91.5548 57.424C93.0428 59.392 95.3228 60.376 98.3948 60.376C99.9788 60.376 101.731 60.088 103.651 59.512C105.571 58.936 107.563 58.024 109.627 56.776L113.011 62.176C110.227 64.096 107.371 65.536 104.443 66.496C101.563 67.408 98.7548 67.864 96.0188 67.864ZM96.5948 34.96C94.2428 34.96 92.4668 35.8 91.2668 37.48C90.0668 39.112 89.3228 41.2 89.0348 43.744H103.003C102.955 41.152 102.451 39.04 101.491 37.408C100.531 35.776 98.8988 34.96 96.5948 34.96ZM117.966 67V61.816L122.79 60.448V35.608H117.75V30.208L122.79 28.912V25.528C122.79 20.392 124.158 16.6 126.894 14.152C129.63 11.656 133.302 10.408 137.91 10.408C139.254 10.408 140.622 10.528 142.014 10.768C143.454 11.008 144.99 11.344 146.622 11.776L145.182 18.472C144.222 18.184 143.286 17.968 142.374 17.824C141.462 17.632 140.55 17.536 139.638 17.536C137.67 17.536 136.038 18.088 134.742 19.192C133.494 20.248 132.87 22.072 132.87 24.664V28.912H141.87L141.654 35.608H132.87V60.376L138.63 61.816V67H117.966ZM169.1 67.576L167.876 61.528C166.052 63.64 164.036 65.224 161.828 66.28C159.668 67.336 157.46 67.864 155.204 67.864C152.132 67.864 149.588 66.88 147.572 64.912C145.556 62.944 144.548 60.112 144.548 56.416C144.548 52.384 145.844 49.528 148.436 47.848C151.076 46.168 154.82 45.328 159.668 45.328H166.796V41.368C166.796 39.112 166.244 37.504 165.14 36.544C164.084 35.584 162.524 35.104 160.46 35.104C158.684 35.104 156.644 35.416 154.34 36.04L153.548 41.008H147.284L146.708 30.496C153.188 28.624 158.66 27.688 163.124 27.688C167.636 27.688 171.044 28.648 173.348 30.568C175.7 32.488 176.876 35.464 176.876 39.496V60.304L181.7 61.816V66.928L169.1 67.576ZM154.7 55.408C154.7 57.232 155.108 58.552 155.924 59.368C156.788 60.184 157.868 60.592 159.164 60.592C160.316 60.592 161.564 60.256 162.908 59.584C164.252 58.912 165.548 58 166.796 56.848V50.656H161.324C158.828 50.656 157.1 51.064 156.14 51.88C155.18 52.648 154.7 53.824 154.7 55.408ZM202.187 67.864C198.875 67.864 195.875 67.096 193.187 65.56C190.547 64.024 188.459 61.792 186.923 58.864C185.387 55.888 184.619 52.312 184.619 48.136C184.619 44.344 185.171 41.152 186.275 38.56C187.379 35.92 188.867 33.808 190.739 32.224C192.611 30.64 194.699 29.488 197.003 28.768C199.307 28.048 201.683 27.688 204.131 27.688C206.435 27.688 208.763 27.976 211.115 28.552C213.467 29.128 215.387 29.776 216.875 30.496L216.587 41.08H210.107L209.099 35.536C208.379 35.296 207.587 35.128 206.723 35.032C205.859 34.936 205.067 34.888 204.347 34.888C201.227 34.888 198.899 36.04 197.363 38.344C195.875 40.6 195.131 43.672 195.131 47.56C195.131 51.784 195.971 55 197.651 57.208C199.379 59.368 201.659 60.448 204.491 60.448C207.563 60.448 211.043 59.2 214.931 56.704L218.315 61.816C215.627 63.88 212.915 65.416 210.179 66.424C207.491 67.384 204.827 67.864 202.187 67.864ZM238.261 67.864C233.029 67.864 228.781 66.232 225.517 62.968C222.301 59.656 220.693 54.832 220.693 48.496C220.693 44.176 221.461 40.48 222.997 37.408C224.581 34.288 226.789 31.888 229.621 30.208C232.453 28.528 235.789 27.688 239.629 27.688C243.373 27.688 246.421 28.432 248.773 29.92C251.125 31.408 252.853 33.448 253.957 36.04C255.061 38.584 255.613 41.464 255.613 44.68C255.613 46.264 255.469 47.944 255.181 49.72H231.205C231.493 52.888 232.357 55.456 233.797 57.424C235.285 59.392 237.565 60.376 240.637 60.376C242.221 60.376 243.973 60.088 245.893 59.512C247.813 58.936 249.805 58.024 251.869 56.776L255.253 62.176C252.469 64.096 249.613 65.536 246.685 66.496C243.805 67.408 240.997 67.864 238.261 67.864ZM238.837 34.96C236.485 34.96 234.709 35.8 233.509 37.48C232.309 39.112 231.565 41.2 231.277 43.744H245.245C245.197 41.152 244.693 39.04 243.733 37.408C242.773 35.776 241.141 34.96 238.837 34.96Z" fill="#1C6B5F"/>
<mask id="mask0" mask-type="alpha" maskUnits="userSpaceOnUse" x="2" y="10" width="254" height="58">
<path d="M21.816 49.072H18.216V60.304L25.056 61.816V67H2.592V61.816L7.92 60.304V23.224L2.592 21.856V16.672L18.432 16.312H24.984C28.968 16.312 32.232 17.008 34.776 18.4C37.32 19.744 39.192 21.616 40.392 24.016C41.64 26.368 42.264 29.008 42.264 31.936C42.264 35.2 41.52 38.128 40.032 40.72C38.592 43.264 36.36 45.304 33.336 46.84C30.36 48.328 26.52 49.072 21.816 49.072ZM23.328 23.656H18.216V41.656H21.888C25.056 41.656 27.48 40.792 29.16 39.064C30.888 37.336 31.752 35.032 31.752 32.152C31.752 29.512 31.032 27.448 29.592 25.96C28.2 24.424 26.112 23.656 23.328 23.656ZM45.6818 67V61.816L50.5058 60.448V35.392L45.6818 33.952V28.768L58.3538 28.192L59.3618 33.664C61.3298 31.744 63.2738 30.28 65.1938 29.272C67.1618 28.216 69.2738 27.688 71.5298 27.688C73.0178 27.688 74.6498 27.928 76.4258 28.408L75.7778 41.728H69.9458L69.0818 35.68C68.7458 35.632 68.3858 35.608 68.0018 35.608C66.7058 35.608 65.4098 35.968 64.1138 36.688C62.8178 37.408 61.6418 38.344 60.5858 39.496V60.448L66.5618 61.816V67H45.6818ZM96.0188 67.864C90.7868 67.864 86.5388 66.232 83.2748 62.968C80.0588 59.656 78.4508 54.832 78.4508 48.496C78.4508 44.176 79.2188 40.48 80.7548 37.408C82.3388 34.288 84.5468 31.888 87.3788 30.208C90.2108 28.528 93.5468 27.688 97.3867 27.688C101.131 27.688 104.179 28.432 106.531 29.92C108.883 31.408 110.611 33.448 111.715 36.04C112.819 38.584 113.371 41.464 113.371 44.68C113.371 46.264 113.227 47.944 112.939 49.72H88.9628C89.2508 52.888 90.1148 55.456 91.5548 57.424C93.0428 59.392 95.3228 60.376 98.3948 60.376C99.9788 60.376 101.731 60.088 103.651 59.512C105.571 58.936 107.563 58.024 109.627 56.776L113.011 62.176C110.227 64.096 107.371 65.536 104.443 66.496C101.563 67.408 98.7548 67.864 96.0188 67.864ZM96.5948 34.96C94.2428 34.96 92.4668 35.8 91.2668 37.48C90.0668 39.112 89.3228 41.2 89.0348 43.744H103.003C102.955 41.152 102.451 39.04 101.491 37.408C100.531 35.776 98.8988 34.96 96.5948 34.96ZM117.966 67V61.816L122.79 60.448V35.608H117.75V30.208L122.79 28.912V25.528C122.79 20.392 124.158 16.6 126.894 14.152C129.63 11.656 133.302 10.408 137.91 10.408C139.254 10.408 140.622 10.528 142.014 10.768C143.454 11.008 144.99 11.344 146.622 11.776L145.182 18.472C144.222 18.184 143.286 17.968 142.374 17.824C141.462 17.632 140.55 17.536 139.638 17.536C137.67 17.536 136.038 18.088 134.742 19.192C133.494 20.248 132.87 22.072 132.87 24.664V28.912H141.87L141.654 35.608H132.87V60.376L138.63 61.816V67H117.966ZM169.1 67.576L167.876 61.528C166.052 63.64 164.036 65.224 161.828 66.28C159.668 67.336 157.46 67.864 155.204 67.864C152.132 67.864 149.588 66.88 147.572 64.912C145.556 62.944 144.548 60.112 144.548 56.416C144.548 52.384 145.844 49.528 148.436 47.848C151.076 46.168 154.82 45.328 159.668 45.328H166.796V41.368C166.796 39.112 166.244 37.504 165.14 36.544C164.084 35.584 162.524 35.104 160.46 35.104C158.684 35.104 156.644 35.416 154.34 36.04L153.548 41.008H147.284L146.708 30.496C153.188 28.624 158.66 27.688 163.124 27.688C167.636 27.688 171.044 28.648 173.348 30.568C175.7 32.488 176.876 35.464 176.876 39.496V60.304L181.7 61.816V66.928L169.1 67.576ZM154.7 55.408C154.7 57.232 155.108 58.552 155.924 59.368C156.788 60.184 157.868 60.592 159.164 60.592C160.316 60.592 161.564 60.256 162.908 59.584C164.252 58.912 165.548 58 166.796 56.848V50.656H161.324C158.828 50.656 157.1 51.064 156.14 51.88C155.18 52.648 154.7 53.824 154.7 55.408ZM202.187 67.864C198.875 67.864 195.875 67.096 193.187 65.56C190.547 64.024 188.459 61.792 186.923 58.864C185.387 55.888 184.619 52.312 184.619 48.136C184.619 44.344 185.171 41.152 186.275 38.56C187.379 35.92 188.867 33.808 190.739 32.224C192.611 30.64 194.699 29.488 197.003 28.768C199.307 28.048 201.683 27.688 204.131 27.688C206.435 27.688 208.763 27.976 211.115 28.552C213.467 29.128 215.387 29.776 216.875 30.496L216.587 41.08H210.107L209.099 35.536C208.379 35.296 207.587 35.128 206.723 35.032C205.859 34.936 205.067 34.888 204.347 34.888C201.227 34.888 198.899 36.04 197.363 38.344C195.875 40.6 195.131 43.672 195.131 47.56C195.131 51.784 195.971 55 197.651 57.208C199.379 59.368 201.659 60.448 204.491 60.448C207.563 60.448 211.043 59.2 214.931 56.704L218.315 61.816C215.627 63.88 212.915 65.416 210.179 66.424C207.491 67.384 204.827 67.864 202.187 67.864ZM238.261 67.864C233.029 67.864 228.781 66.232 225.517 62.968C222.301 59.656 220.693 54.832 220.693 48.496C220.693 44.176 221.461 40.48 222.997 37.408C224.581 34.288 226.789 31.888 229.621 30.208C232.453 28.528 235.789 27.688 239.629 27.688C243.373 27.688 246.421 28.432 248.773 29.92C251.125 31.408 252.853 33.448 253.957 36.04C255.061 38.584 255.613 41.464 255.613 44.68C255.613 46.264 255.469 47.944 255.181 49.72H231.205C231.493 52.888 232.357 55.456 233.797 57.424C235.285 59.392 237.565 60.376 240.637 60.376C242.221 60.376 243.973 60.088 245.893 59.512C247.813 58.936 249.805 58.024 251.869 56.776L255.253 62.176C252.469 64.096 249.613 65.536 246.685 66.496C243.805 67.408 240.997 67.864 238.261 67.864ZM238.837 34.96C236.485 34.96 234.709 35.8 233.509 37.48C232.309 39.112 231.565 41.2 231.277 43.744H245.245C245.197 41.152 244.693 39.04 243.733 37.408C242.773 35.776 241.141 34.96 238.837 34.96Z" fill="#1C6B5F"/>
</mask>
<g mask="url(#mask0)">
<path d="M20 38C-4 46.7529 -16.6667 9.2842 -21 -5H295L248 30C240.333 36.6862 212.4 38.9467 182 43.3232C144 48.7937 146 50.1765 131 52C116 53.8235 91 47.8819 90 43.3232C89 38.7644 50 27.0589 20 38Z" fill="#316851"/>
<g style="mix-blend-mode:overlay">
<path d="M20 52C-4 60.7529 -16.6667 23.2842 -21 9H295L248 44C240.333 50.6862 212.4 52.9467 182 57.3232C144 62.7937 146 64.1765 131 66C116 67.8235 91 61.8819 90 57.3232C89 52.7644 50 41.0589 20 52Z" fill="#336778"/>
</g>
</g>
</svg>
